<svg width="32" height="32" viewBox="0 0 36 36" fill="none" xmlns="http://www.w3.org/2000/svg">
  <defs>
    <clipPath id="clip">
      <circle cx="18" cy="18" r="17.5"/>
    </clipPath>
    <linearGradient id="bot" x1="0" y1="36" x2="36" y2="24" gradientUnits="userSpaceOnUse">
      <stop offset="0%" stop-color="#0a1e4a"/>
      <stop offset="50%" stop-color="#0d2a66"/>
      <stop offset="100%" stop-color="#10357d"/>
    </linearGradient>
    <linearGradient id="mid" x1="0" y1="24" x2="36" y2="12" gradientUnits="userSpaceOnUse">
      <stop offset="0%" stop-color="#10357d"/>
      <stop offset="50%" stop-color="#1448a8"/>
      <stop offset="100%" stop-color="#1a5bc4"/>
    </linearGradient>
    <linearGradient id="top" x1="0" y1="12" x2="36" y2="0" gradientUnits="userSpaceOnUse">
      <stop offset="0%" stop-color="#1a5bc4"/>
      <stop offset="50%" stop-color="#1e6ed8"/>
      <stop offset="100%" stop-color="#2882ed"/>
    </linearGradient>
    <filter id="sh" x="-10%" y="-10%" width="120%" height="120%">
      <feDropShadow dx="0" dy="1.5" stdDeviation="2" flood-color="#000820" flood-opacity="0.55"/>
    </filter>
  </defs>
  <circle cx="18" cy="18" r="17.5" fill="url(#bot)" filter="url(#sh)"/>
  <g clip-path="url(#clip)">
    <path d="M -2,24 C 6,21 12,27 18,24 C 24,21 30,27 38,24 L 38,-2 L -2,-2 Z" fill="url(#mid)"/>
    <path d="M -2,12 C 6,9 12,15 18,12 C 24,9 30,15 38,12 L 38,-2 L -2,-2 Z" fill="url(#top)"/>
  </g>
  <circle cx="18" cy="18" r="17.2" fill="none" stroke="rgba(0,5,40,0.5)" stroke-width="0.85"/>
  <circle cx="18" cy="18" r="16.6" fill="none" stroke="rgba(255,255,255,0.07)" stroke-width="0.4"/>
</svg>
