<svg width="32" height="32" viewBox="0 0 32 32" fill="none" xmlns="http://www.w3.org/2000/svg">
  <defs>
    <clipPath id="c"><circle cx="16" cy="16" r="15.6"/></clipPath>
    <radialGradient id="bg" cx="11" cy="9" r="20" gradientUnits="userSpaceOnUse">
      <stop offset="0%" stop-color="#1045b0"/>
      <stop offset="55%" stop-color="#0a2880"/>
      <stop offset="100%" stop-color="#020e52"/>
    </radialGradient>
    <linearGradient id="w1" x1="0" y1="32" x2="32" y2="0" gradientUnits="userSpaceOnUse">
      <stop offset="0%" stop-color="#1045b0"/>
      <stop offset="100%" stop-color="#1558c4"/>
    </linearGradient>
    <linearGradient id="w2" x1="0" y1="32" x2="32" y2="0" gradientUnits="userSpaceOnUse">
      <stop offset="0%" stop-color="#1660cc"/>
      <stop offset="100%" stop-color="#1f78de"/>
    </linearGradient>
  </defs>
  <circle cx="16" cy="16" r="15.6" fill="url(#bg)"/>
  <g clip-path="url(#c)">
    <path d="M -2,20 C 5,12 12,23 18,16 C 24,10 29,18 34,12 L 34,34 L -2,34 Z" fill="url(#w1)"/>
    <path d="M -2,10 C 5,3 12,14 18,7 C 24,0 29,8 34,3 L 34,12 C 29,18 24,10 18,16 C 12,23 5,12 -2,20 Z" fill="url(#w2)"/>
    <ellipse cx="10" cy="8" rx="6.5" ry="2.8" fill="rgba(255,255,255,0.13)" transform="rotate(-28 10 8)"/>
  </g>
  <circle cx="16" cy="16" r="15.3" fill="none" stroke="rgba(0,8,50,0.4)" stroke-width="0.8"/>
</svg>
